<?xml version="1.0" encoding="iso-8859-1"?>
<!-- Generator: Adobe Illustrator 18.0.0, SVG Export Plug-In . SVG Version: 6.00 Build 0)  -->
<!DOCTYPE svg PUBLIC "-//W3C//DTD SVG 1.1//EN" "http://www.w3.org/Graphics/SVG/1.1/DTD/svg11.dtd">
<svg version="1.1" id="Capa_1" xmlns="http://www.w3.org/2000/svg" xmlns:xlink="http://www.w3.org/1999/xlink" x="0px" y="0px"
	 viewBox="0 0 438.694 438.694" style="enable-background:new 0 0 438.694 438.694;" xml:space="preserve">
<g>
	<path d="M386.382,0H88.379C61.562,0,39.746,21.816,39.746,48.633v2.731C19.318,54.719,3.68,72.49,3.68,93.853v283.375
		c0,33.893,27.574,61.467,61.467,61.467c27.346,0,50.568-17.955,58.523-42.69h262.711c26.816,0,48.633-21.816,48.633-48.633V48.633
		C435.014,21.816,413.198,0,386.382,0z M65.147,424.694c-26.173,0-47.467-21.294-47.467-47.467V93.853
		c0-13.614,9.41-25.067,22.066-28.209v281.727c0,26.816,21.816,48.633,48.633,48.633h20.355
		C101.443,412.864,84.653,424.694,65.147,424.694z M421.014,347.371c0,19.097-15.536,34.633-34.633,34.633H126.41
		c0.122-1.578,0.204-3.167,0.204-4.776v-4.877h21.088c16.375,0,29.698-13.322,29.698-29.698V53.352
		c0-16.376-13.323-29.698-29.698-29.698H91.525c-16.375,0-29.698,13.322-29.698,29.698v289.301
		c0,16.376,13.322,29.698,29.698,29.698h21.089v4.877c0,1.612-0.083,3.205-0.24,4.776H88.379c-19.097,0-34.633-15.536-34.633-34.633
		V48.633C53.746,29.536,69.282,14,88.379,14h298.003c19.097,0,34.633,15.536,34.633,34.633V347.371z M91.525,358.351
		c-8.656,0-15.698-7.042-15.698-15.698V53.352c0-8.656,7.042-15.698,15.698-15.698h56.177c8.656,0,15.698,7.042,15.698,15.698
		v289.301c0,8.656-7.042,15.698-15.698,15.698H91.525z"/>
	<path d="M349.142,163.117l-10.187,10.187v20.86l10.187,10.187h39.021l10.187-10.187v-20.86l-10.187-10.187H349.142z
		 M384.35,188.365l-1.985,1.985h-27.424l-1.985-1.985v-9.263l1.985-1.985h27.424l1.985,1.985V188.365z"/>
	<path d="M280.189,163.117l-10.187,10.187v20.86l10.187,10.187h39.022l10.187-10.187v-20.86l-10.187-10.187H280.189z
		 M315.398,188.365l-1.985,1.985h-27.425l-1.985-1.985v-9.263l1.985-1.985h27.425l1.985,1.985V188.365z"/>
	<path d="M211.237,163.117l-10.187,10.187v20.86l10.187,10.187h39.021l10.187-10.187v-20.86l-10.187-10.187H211.237z
		 M246.445,188.365l-1.985,1.985h-27.424l-1.985-1.985v-9.263l1.985-1.985h27.424l1.985,1.985V188.365z"/>
	<path d="M349.142,214.195l-10.187,10.187v20.86l10.187,10.187h39.021l10.187-10.187v-20.86l-10.187-10.187H349.142z
		 M384.35,239.443l-1.985,1.985h-27.424l-1.985-1.985v-9.263l1.985-1.985h27.424l1.985,1.985V239.443z"/>
	<path d="M280.189,214.195l-10.187,10.187v20.86l10.187,10.187h39.022l10.187-10.187v-20.86l-10.187-10.187H280.189z
		 M315.398,239.443l-1.985,1.985h-27.425l-1.985-1.985v-9.263l1.985-1.985h27.425l1.985,1.985V239.443z"/>
	<path d="M211.237,214.195l-10.187,10.187v20.86l10.187,10.187h39.021l10.187-10.187v-20.86l-10.187-10.187H211.237z
		 M246.445,239.443l-1.985,1.985h-27.424l-1.985-1.985v-9.263l1.985-1.985h27.424l1.985,1.985V239.443z"/>
	<path d="M349.142,265.272l-10.187,10.187v20.86l10.187,10.187h39.021l10.187-10.187v-20.86l-10.187-10.187H349.142z
		 M384.35,290.521l-1.985,1.985h-27.424l-1.985-1.985v-9.263l1.985-1.985h27.424l1.985,1.985V290.521z"/>
	<path d="M280.189,265.272l-10.187,10.187v20.86l10.187,10.187h39.022l10.187-10.187v-20.86l-10.187-10.187H280.189z
		 M315.398,290.521l-1.985,1.985h-27.425l-1.985-1.985v-9.263l1.985-1.985h27.425l1.985,1.985V290.521z"/>
	<path d="M211.237,265.272l-10.187,10.187v20.86l10.187,10.187h39.021l10.187-10.187v-20.86l-10.187-10.187H211.237z
		 M246.445,290.521l-1.985,1.985h-27.424l-1.985-1.985v-9.263l1.985-1.985h27.424l1.985,1.985V290.521z"/>
	<path d="M349.142,316.351l-10.187,10.187v20.86l10.187,10.187h39.021l10.187-10.187v-20.86l-10.187-10.187H349.142z
		 M384.35,341.599l-1.985,1.985h-27.424l-1.985-1.985v-9.263l1.985-1.985h27.424l1.985,1.985V341.599z"/>
	<path d="M280.189,316.351l-10.187,10.187v20.86l10.187,10.187h39.022l10.187-10.187v-20.86l-10.187-10.187H280.189z
		 M315.398,341.599l-1.985,1.985h-27.425l-1.985-1.985v-9.263l1.985-1.985h27.425l1.985,1.985V341.599z"/>
	<path d="M211.237,316.351l-10.187,10.187v20.86l10.187,10.187h39.021l10.187-10.187v-20.86l-10.187-10.187H211.237z
		 M246.445,341.599l-1.985,1.985h-27.424l-1.985-1.985v-9.263l1.985-1.985h27.424l1.985,1.985V341.599z"/>
	<path d="M377.43,132.532l15.481-15.481V88.832L377.43,73.351H221.97l-15.481,15.481v28.219l15.481,15.481H377.43z M220.489,94.631
		l7.28-7.28h143.862l7.28,7.28v16.621l-7.28,7.28H227.769l-7.28-7.28V94.631z"/>
</g>
<g>
</g>
<g>
</g>
<g>
</g>
<g>
</g>
<g>
</g>
<g>
</g>
<g>
</g>
<g>
</g>
<g>
</g>
<g>
</g>
<g>
</g>
<g>
</g>
<g>
</g>
<g>
</g>
<g>
</g>
</svg>
