<svg height="512pt" viewBox="0 0 512.00194 512" width="512pt" xmlns="http://www.w3.org/2000/svg"><path d="m224.730469 43.914062c-2.007813 0-4.007813-.800781-5.480469-2.382812l-15.792969-16.96875c-2.816406-3.027344-2.648437-7.761719.378907-10.578125 3.023437-2.816406 7.761718-2.648437 10.578124.378906l15.792969 16.964844c2.816407 3.027344 2.648438 7.765625-.378906 10.582031-1.441406 1.339844-3.273437 2.003906-5.097656 2.003906zm0 0"/><path d="m296.195312 43.914062c-1.828124 0-3.65625-.664062-5.097656-2.003906-3.027344-2.816406-3.195312-7.554687-.378906-10.582031l15.792969-16.964844c2.816406-3.027343 7.550781-3.195312 10.578125-.378906 3.023437 2.816406 3.195312 7.550781.378906 10.578125l-15.792969 16.96875c-1.476562 1.582031-3.476562 2.382812-5.480469 2.382812zm0 0"/><path d="m260.460938 36.929688c-4.132813 0-7.484376-3.351563-7.484376-7.484376v-21.960937c0-4.132813 3.351563-7.484375 7.484376-7.484375 4.136718 0 7.484374 3.351562 7.484374 7.484375v21.957031c0 4.136719-3.347656 7.488282-7.484374 7.488282zm0 0"/><path d="m95.480469 253.285156v14.742188c0 4.136718 3.351562 7.488281 7.484375 7.488281 4.132812 0 7.484375-3.351563 7.484375-7.488281v-14.742188c0-4.132812-3.351563-7.484375-7.484375-7.484375-4.132813 0-7.484375 3.351563-7.484375 7.484375zm0 0"/><path d="m503.988281 245.039062c-5.371093-2.289062-11.511719-.828124-15.285156 3.636719-11.191406 13.246094-27.820313 17.40625-39.796875 18.566407-.554688.054687-1.097656-.316407-1.253906-.859376-2.980469-10.277343-7.144532-20.390624-12.386719-30.058593-6.535156-12.058594-14.484375-23.386719-23.628906-33.667969-19.808594-22.269531-44.949219-39.480469-73.171875-50.460938 1.707031-6.507812 2.632812-13.328124 2.632812-20.363281 0-44.464843-36.171875-80.636719-80.636718-80.636719-44.460938 0-80.636719 36.171876-80.636719 80.636719 0 5.242188.523437 10.367188 1.488281 15.332031-4.820312 1.226563-9.558594 2.570313-14.203125 4.035157-2.058594-2.089844-4.203125-4.097657-6.425781-6.003907-3.136719-2.691406-7.863282-2.332031-10.554688.804688-2.695312 3.136719-2.332031 7.863281.804688 10.554688 3.75 3.21875 7.25 6.765624 10.402344 10.539062 6.785156 8.128906 8.238281 18.777344 3.894531 28.488281-4.402344 9.828125-13.433594 15.910157-24.175781 16.269531l-.160157.007813c-13.082031.414063-24.78125-8.804687-27.796875-21.976563-.984375-4.304687-.6875-9.15625-.367187-14.292968.222656-3.578125.449219-7.277344.277343-11.113282-.453124-10.152343-2.054687-20.277343-3.699218-29.15625 5.050781 1.367188 9.910156 3 14.476562 4.867188 3.828125 1.566406 8.199219-.269531 9.761719-4.097656 1.566406-3.828125-.269531-8.195313-4.097656-9.761719-6.152344-2.515625-12.753907-4.644531-19.613281-6.332031-4.3125-1.058594-8.8125.132812-12.027344 3.1875-3.210938 3.050781-4.628906 7.46875-3.796875 11.820312 1.824219 9.515625 3.574219 19.757813 4.039062 30.140625.136719 3.042969-.058593 6.1875-.265625 9.519531-.265625 4.273438-.523437 8.652344-.117187 13.148438-21.433594 17.742188-36.972657 39.574219-46.304688 65.226562-1.90625 5.246094-6.910156 8.773438-12.453125 8.773438h-6.714844c-17.753906 0-32.195312 14.441406-32.195312 32.195312v25.34375c0 17.753907 14.441406 32.195313 32.195312 32.195313h4.21875c5.816407 0 10.976563 3.703125 12.839844 9.214844l.050782.144531c8.570312 25.320312 21.007812 41.515625 37.039062 58.046875 6.851562 7.0625 13.980469 13.441406 21.191406 18.957031 3.949219 3.019532 7.988282 5.835938 12.011719 8.367188 3.261719 2.050781 6.816406 3.691406 10.257813 5.269531 5.328124 2.453125 10.359374 4.765625 13.378906 8.136719 2.21875 2.476562 2.261718 4.914062 1.8125 11.242187l-.105469 1.550781c-.507813 7.746094-1.886719 16.507813-3.105469 24.234376-.597656 3.796874.492188 7.652343 2.992188 10.574218 2.496094 2.921875 6.136718 4.597656 9.980468 4.597656h36.515626c3.164062 0 6.1875-1.160156 8.519531-3.261718 2.1875-1.976563 13.355469-12.785156 18.3125-31.683594.035156-.140625.28125-.277344.542969-.246094 9.195312 1.027344 18.574218 1.546875 27.875 1.546875 22.007812 0 43.691406-2.855469 64.449218-8.492187.0625-.015625.226563-.0625.429688.078125.191406.136719.203125.296875.207031.367187.714844 10.296875-.097656 22.140625-.957031 26.730469-.699219 3.730469.292968 7.546875 2.714844 10.46875 2.433593 2.929687 6.011718 4.609375 9.820312 4.609375h55.648438c4.679687 0 8.964843-2.53125 11.175781-6.601562 3.921875-7.21875 6.839843-16.535157 8.671875-27.6875.667968-4.078126-2.097656-7.929688-6.175782-8.597657-4.085937-.679687-7.929687 2.09375-8.601562 6.171875-1.445312 8.835938-3.601562 16.140625-6.410156 21.742188h-51.710938c.910156-6.851563 1.421875-18.320313.757813-27.875-.320313-4.632813-2.679688-8.835938-6.464844-11.527344-3.792969-2.695312-8.542969-3.542969-13.027344-2.324219-19.480469 5.289063-39.84375 7.96875-60.527343 7.96875-8.746094 0-17.5625-.488281-26.210938-1.457031-7.601562-.851562-14.773438 4.019531-16.6875 11.324219-3.039062 11.585937-9.464844 20.101562-13.230469 23.773437h-33.484375c1.175782-7.5 2.417969-15.765625 2.921875-23.457031l.101563-1.476563c.464844-6.621093 1.046875-14.863281-5.597656-22.28125-5.089844-5.683593-12.09375-8.90625-18.273438-11.746093-3.140625-1.445313-6.105469-2.808594-8.539062-4.34375-3.636719-2.289063-7.300782-4.839844-10.890626-7.585938-6.628906-5.070312-13.203124-10.953125-19.539062-17.488281-14.625-15.078125-25.933594-29.761719-33.609375-52.421875l-.046875-.140625c-3.917969-11.597656-14.78125-19.390625-27.023438-19.390625h-4.21875c-9.496093 0-17.222656-7.726563-17.222656-17.222656v-25.347657c0-9.496093 7.726563-17.222656 17.222656-17.222656h6.71875c11.808594 0 22.46875-7.484375 26.519532-18.625 7.664062-21.066406 20.023437-39.3125 36.871094-54.554687 7.261718 14.023437 21.707031 23.242187 37.707031 23.242187.464843 0 .929687-.007812 1.394531-.023437l.160156-.007813c16.332032-.542968 30.636719-10.167968 37.328125-25.117187 5.578125-12.464844 4.804688-26.402344-1.738281-37.917969 16.820312-4.867188 34.867188-8.136719 53.6875-9.65625 22.320312-1.800781 42.011719-1.4375 60.207031 1.105469 42.984375 6.011719 81.835938 26.386719 109.398438 57.378906 8.382812 9.421875 15.667969 19.804687 21.65625 30.851563 4.730469 8.726562 8.484375 17.839843 11.167969 27.09375 2.164062 7.464843 9.355468 12.335937 17.074218 11.589843 13.492188-1.304687 31.890625-5.839843 45.984375-19.695312-3.445312 22.171875-14.597656 47.40625-46.652343 53.191406-6.726563 1.214844-12.023438 6.492187-13.1875 13.136719-9.175782 52.40625-48.535157 86.144531-48.921876 86.472656-1.917968 1.609375-2.902343 4.066406-2.628906 6.550781.007813.082031.898438 8.277344 1.082032 19.625.066406 4.132813 3.472656 7.402344 7.605468 7.363281 4.132813-.066406 7.429688-3.472656 7.363282-7.609374-.121094-7.382813-.515626-13.453126-.8125-17.140626 10.097656-9.449218 42.351562-42.957031 51.0625-92.683593.082031-.484375.523437-.878907 1.09375-.980469 34.230468-6.175781 55.394531-31.6875 59.59375-71.832031.601562-5.796875-2.585938-11.222657-7.941407-13.503907zm-212.777343-104.886718c-18.75-2.464844-38.910157-2.777344-61.570313-.953125-.058594.007812-.117187.011719-.175781.019531-.570313-2.371094-.871094-4.84375-.871094-7.386719 0-17.570312 14.296875-31.867187 31.871094-31.867187 17.570312 0 31.867187 14.296875 31.867187 31.867187-.003906 2.878907-.398437 5.664063-1.121093 8.320313zm33.054687 7.128906c-5.972656-1.820312-12.058594-3.367188-18.234375-4.640625.824219-3.46875 1.269531-7.089844 1.269531-10.808594 0-25.828125-21.011719-46.839843-46.839843-46.839843-25.824219 0-46.839844 21.011718-46.839844 46.839843 0 3.074219.308594 6.074219.878906 8.984375-6.296875.832032-12.496094 1.847656-18.589844 3.054688-.726562-3.902344-1.113281-7.925782-1.113281-12.039063 0-36.207031 29.457031-65.664062 65.664063-65.664062 36.210937 0 65.667968 29.457031 65.667968 65.664062 0 5.324219-.660156 10.492188-1.863281 15.449219zm0 0"/></svg>