<svg version="1.1" id="Capa_1" xmlns="http://www.w3.org/2000/svg" xmlns:xlink="http://www.w3.org/1999/xlink" x="0px" y="0px"
	 viewBox="0 0 196.239 196.239" style="enable-background:new 0 0 196.239 196.239;" xml:space="preserve">
		<path style="fill:#010002;" d="M27.435,103.967v25.367h140.753v-25.367v-2.133L154.51,31.471H44.789l-17.354,70.496V103.967z
			 M164.613,125.759H31.007v-21.792h133.606V125.759z M47.584,35.042h103.98l12.701,65.357H31.497L47.584,35.042z"/>
		<path style="fill:#010002;" d="M147.123,120.187c3.504,0,6.349-2.852,6.349-6.352c0-3.5-2.845-6.352-6.349-6.352
			c-3.504,0-6.349,2.852-6.349,6.352C140.774,117.334,143.619,120.187,147.123,120.187z M147.123,111.046
			c1.532,0,2.781,1.253,2.781,2.784s-1.253,2.777-2.781,2.777c-1.528,0-2.781-1.245-2.781-2.777S145.595,111.046,147.123,111.046z"
			/>
		<rect x="37.199" y="109.264" style="fill:#010002;" width="33.033" height="4.567"/>
		<circle style="fill:#010002;" cx="83.044" cy="115.717" r="2.978"/>
		<path style="fill:#010002;" d="M91.973,118.691c1.643,0,2.978-1.328,2.978-2.967c0-1.65-1.335-2.985-2.978-2.985
			C90.33,112.739,90.33,118.691,91.973,118.691z"/>
		<circle style="fill:#010002;" cx="99.982" cy="115.717" r="2.978"/>
		<path style="fill:#010002;" d="M137.868,79.896l-11.395-7.018c-2.265-1.392-6.027-1.346-8.375,0.1l-5.744,3.536
			c-0.358-0.122-0.737-0.251-1.127-0.387c-3.625-1.242-8.586-2.938-13.807-6.152c-5.236-3.228-7.995-6.292-10.003-8.525
			c-0.218-0.236-0.419-0.462-0.612-0.684l3.847-2.369l1.897-1.167c2.344-1.449,2.416-3.765,0.15-5.161l-11.399-7.018
			c-2.265-1.396-6.02-1.356-8.375,0.093l-3.207,1.993l0.086,0.05c-1.074,0.845-1.972,1.829-2.645,2.877
			c-0.616,0.998-1.006,1.958-1.181,2.917c-1.5,7.68,4.198,14.705,19.662,24.232c21.38,13.177,38.612,12.182,39.353,12.132
			c1.625-0.122,3.174-0.361,4.753-0.737c1.693-0.408,3.271-0.959,4.649-1.621l0.072,0.036l3.25-1.961
			C140.065,83.611,140.133,81.295,137.868,79.896z M135.188,83.504l-1.432,0.88l-0.569,0.34c-0.905,0.533-2.462,1.285-4.735,1.832
			c-1.288,0.304-20.221,1.46-40.28-10.894C71.119,65.158,68.388,59.103,69.533,53.237c0.147-0.777,0.458-1.557,0.959-2.376
			c0.898-1.41,2.119-2.366,2.985-2.92l1.979-1.231c0.959-0.594,2.444-0.633,3.314-0.1l11.399,7.025
			c0.873,0.533,0.805,1.453-0.154,2.044l-7.691,4.735l0.709,0.741c0.397,0.412,0.812,0.87,1.26,1.371
			c2.112,2.351,5.01,5.569,10.604,9.015c5.579,3.432,10.79,5.218,14.598,6.517c0.82,0.283,1.571,0.544,2.251,0.787l1.195,0.437
			l7.691-4.738c0.956-0.594,2.452-0.633,3.318-0.097l11.395,7.015C136.215,81.997,136.143,82.913,135.188,83.504z"/>
		<path style="fill:#010002;" d="M196.236,154.823H112.09c-0.82-3.647-4.073-6.388-7.963-6.388H99.61v-18.173h-3.568v18.17h-4.52
			c-3.887,0-7.14,2.745-7.959,6.388H0v3.568h83.566c0.82,3.647,4.073,6.381,7.959,6.381h12.605c3.89,0,7.14-2.738,7.963-6.381
			h84.146v-3.565H196.236z M104.13,161.204H91.526c-2.534,0-4.599-2.065-4.599-4.599c0-2.537,2.065-4.595,4.599-4.595h12.605
			c2.541,0,4.599,2.058,4.599,4.595C108.729,159.139,106.671,161.204,104.13,161.204z"/>
</svg>
