<svg xmlns="http://www.w3.org/2000/svg" height="750pt" version="1.1" viewBox="0 -49 750 749" width="750pt">
<g id="surface1">
<path d="M 712.5 400.5 L 700 400.5 L 700 238 C 699.996094 236.65625 699.78125 235.320312 699.355469 234.050781 L 687.5 198.472656 L 687.5 38 C 687.5 17.292969 670.707031 0.5 650 0.5 C 629.292969 0.5 612.5 17.292969 612.5 38 L 612.5 198.472656 L 600.644531 234.050781 C 600.21875 235.320312 600.003906 236.65625 600 238 L 600 400.5 L 425 400.5 L 425 238 C 424.996094 236.65625 424.78125 235.320312 424.355469 234.050781 L 412.5 198.472656 L 412.5 38 C 412.5 17.292969 395.707031 0.5 375 0.5 C 354.292969 0.5 337.5 17.292969 337.5 38 L 337.5 198.472656 L 325.644531 234.050781 C 325.21875 235.320312 325.003906 236.65625 325 238 L 325 400.5 L 150 400.5 L 150 238 C 149.996094 236.65625 149.78125 235.320312 149.355469 234.050781 L 137.5 198.472656 L 137.5 38 C 137.5 17.292969 120.707031 0.5 100 0.5 C 79.292969 0.5 62.5 17.292969 62.5 38 L 62.5 198.472656 L 50.644531 234.050781 C 50.21875 235.320312 50.003906 236.65625 50 238 L 50 400.5 L 37.5 400.5 C 16.792969 400.5 0 417.292969 0 438 L 0 563 C 0 583.707031 16.792969 600.5 37.5 600.5 L 50 600.5 L 50 638 C 50 644.90625 55.59375 650.5 62.5 650.5 L 137.5 650.5 C 144.40625 650.5 150 644.90625 150 638 L 150 600.5 L 600 600.5 L 600 638 C 600 644.90625 605.59375 650.5 612.5 650.5 L 687.5 650.5 C 694.40625 650.5 700 644.90625 700 638 L 700 600.5 L 712.5 600.5 C 733.207031 600.5 750 583.707031 750 563 L 750 438 C 750 417.292969 733.207031 400.5 712.5 400.5 Z M 636.855469 204.449219 C 637.28125 203.179688 637.496094 201.84375 637.5 200.5 L 637.5 38 C 637.5 31.09375 643.09375 25.5 650 25.5 C 656.90625 25.5 662.5 31.09375 662.5 38 L 662.5 200.5 C 662.503906 201.84375 662.71875 203.179688 663.144531 204.449219 L 675 240.027344 L 675 325.5 L 625 325.5 L 625 240.027344 Z M 625 350.5 L 675 350.5 L 675 400.5 L 625 400.5 Z M 361.855469 204.449219 C 362.28125 203.179688 362.496094 201.84375 362.5 200.5 L 362.5 38 C 362.5 31.09375 368.09375 25.5 375 25.5 C 381.90625 25.5 387.5 31.09375 387.5 38 L 387.5 200.5 C 387.503906 201.84375 387.71875 203.179688 388.144531 204.449219 L 400 240.027344 L 400 325.5 L 350 325.5 L 350 240.027344 Z M 350 350.5 L 400 350.5 L 400 400.5 L 350 400.5 Z M 86.855469 204.449219 C 87.28125 203.179688 87.496094 201.84375 87.5 200.5 L 87.5 38 C 87.5 31.09375 93.09375 25.5 100 25.5 C 106.90625 25.5 112.5 31.09375 112.5 38 L 112.5 200.5 C 112.503906 201.84375 112.71875 203.179688 113.144531 204.449219 L 125 240.027344 L 125 325.5 L 75 325.5 L 75 240.027344 Z M 75 350.5 L 125 350.5 L 125 400.5 L 75 400.5 Z M 125 625.5 L 75 625.5 L 75 600.5 L 125 600.5 Z M 675 625.5 L 625 625.5 L 625 600.5 L 675 600.5 Z M 725 563 C 725 569.90625 719.40625 575.5 712.5 575.5 L 37.5 575.5 C 30.59375 575.5 25 569.90625 25 563 L 25 438 C 25 431.09375 30.59375 425.5 37.5 425.5 L 712.5 425.5 C 719.40625 425.5 725 431.09375 725 438 Z M 725 563 " style=" stroke:none;fill-rule:nonzero;fill:rgb(0%,0%,0%);fill-opacity:1;" />
<path d="M 662.5 463 C 641.792969 463 625 479.792969 625 500.5 C 625 521.207031 641.792969 538 662.5 538 C 683.207031 538 700 521.207031 700 500.5 C 700 479.792969 683.207031 463 662.5 463 Z M 662.5 513 C 655.59375 513 650 507.40625 650 500.5 C 650 493.59375 655.59375 488 662.5 488 C 669.40625 488 675 493.59375 675 500.5 C 675 507.40625 669.40625 513 662.5 513 Z M 662.5 513 " style=" stroke:none;fill-rule:nonzero;fill:rgb(0%,0%,0%);fill-opacity:1;" />
<path d="M 250 488 L 287.5 488 L 287.5 513 L 250 513 Z M 250 488 " style=" stroke:none;fill-rule:nonzero;fill:rgb(0%,0%,0%);fill-opacity:1;" />
<path d="M 325 488 L 362.5 488 L 362.5 513 L 325 513 Z M 325 488 " style=" stroke:none;fill-rule:nonzero;fill:rgb(0%,0%,0%);fill-opacity:1;" />
<path d="M 400 488 L 437.5 488 L 437.5 513 L 400 513 Z M 400 488 " style=" stroke:none;fill-rule:nonzero;fill:rgb(0%,0%,0%);fill-opacity:1;" />
<path d="M 475 488 L 512.5 488 L 512.5 513 L 475 513 Z M 475 488 " style=" stroke:none;fill-rule:nonzero;fill:rgb(0%,0%,0%);fill-opacity:1;" />
<path d="M 550 488 L 587.5 488 L 587.5 513 L 550 513 Z M 550 488 " style=" stroke:none;fill-rule:nonzero;fill:rgb(0%,0%,0%);fill-opacity:1;" />
<path d="M 62.5 488 L 100 488 L 100 513 L 62.5 513 Z M 62.5 488 " style=" stroke:none;fill-rule:nonzero;fill:rgb(0%,0%,0%);fill-opacity:1;" />
</g>
</svg>